<svg xmlns="http://www.w3.org/2000/svg" width="220" height="220" viewBox="0 0 220 220">
  <defs>
    <linearGradient id="a" x1="0" y1="0" x2="1" y2="1">
      <stop offset="0" stop-color="#58a6ff"/><stop offset="1" stop-color="#bc8cff"/>
    </linearGradient>
  </defs>
  <rect width="220" height="220" rx="12" fill="#0d1117"/>
  <g stroke="#58a6ff" stroke-opacity="0.4" stroke-width="1.5">
    <line x1="40" y1="55" x2="110" y2="40"/><line x1="40" y1="55" x2="110" y2="110"/><line x1="40" y1="55" x2="110" y2="180"/>
    <line x1="40" y1="110" x2="110" y2="40"/><line x1="40" y1="110" x2="110" y2="110"/><line x1="40" y1="110" x2="110" y2="180"/>
    <line x1="40" y1="165" x2="110" y2="40"/><line x1="40" y1="165" x2="110" y2="110"/><line x1="40" y1="165" x2="110" y2="180"/>
    <line x1="110" y1="40" x2="180" y2="75"/><line x1="110" y1="110" x2="180" y2="75"/><line x1="110" y1="180" x2="180" y2="75"/>
    <line x1="110" y1="40" x2="180" y2="145"/><line x1="110" y1="110" x2="180" y2="145"/><line x1="110" y1="180" x2="180" y2="145"/>
  </g>
  <g fill="#0d1117" stroke="url(#a)" stroke-width="3">
    <circle cx="40" cy="55" r="10"/><circle cx="40" cy="110" r="10"/><circle cx="40" cy="165" r="10"/>
    <circle cx="110" cy="40" r="10"/><circle cx="110" cy="110" r="10"/><circle cx="110" cy="180" r="10"/>
    <circle cx="180" cy="75" r="10"/><circle cx="180" cy="145" r="10"/>
  </g>
  <g fill="url(#a)"><circle cx="110" cy="110" r="4"/><circle cx="180" cy="75" r="4"/><circle cx="180" cy="145" r="4"/></g>
</svg>
